<mxfile host="app.diagrams.net" modified="2022-07-20T19:06:06.699Z" agent="5.0 (Windows NT 10.0; Win64; x64) AppleWebKit/537.36 (KHTML, like Gecko) Chrome/103.0.0.0 Safari/537.36" etag="_uW0CRXt_kLCBmVh5rql" version="20.1.1" type="github">
  <diagram id="R2lEEEUBdFMjLlhIrx00" name="Page-1">
    <mxGraphModel dx="2773" dy="1679" grid="1" gridSize="10" guides="1" tooltips="1" connect="1" arrows="1" fold="1" page="1" pageScale="1" pageWidth="1100" pageHeight="850" math="0" shadow="0" extFonts="Permanent Marker^https://fonts.googleapis.com/css?family=Permanent+Marker">
      <root>
        <mxCell id="0" />
        <mxCell id="1" parent="0" />
        <mxCell id="QQLdnKHmHbcZTYwuZHdk-32" value="N" style="edgeStyle=orthogonalEdgeStyle;rounded=0;sketch=0;orthogonalLoop=1;jettySize=auto;exitX=0;exitY=0.5;exitDx=0;exitDy=0;entryX=1;entryY=0.5;entryDx=0;entryDy=0;endArrow=none;endFill=0;html=1;verticalAlign=bottom;" edge="1" parent="1" source="QQLdnKHmHbcZTYwuZHdk-13" target="QQLdnKHmHbcZTYwuZHdk-31">
          <mxGeometry relative="1" as="geometry">
            <mxPoint x="884" y="380" as="targetPoint" />
          </mxGeometry>
        </mxCell>
        <mxCell id="QQLdnKHmHbcZTYwuZHdk-13" value="customer" style="whiteSpace=wrap;html=1;align=center;rounded=0;sketch=0;fillColor=#f8cecc;strokeColor=#b85450;" vertex="1" parent="1">
          <mxGeometry x="864" y="360" width="100" height="40" as="geometry" />
        </mxCell>
        <mxCell id="QQLdnKHmHbcZTYwuZHdk-16" value="ID" style="ellipse;whiteSpace=wrap;html=1;align=center;rounded=0;sketch=0;fillColor=#d5e8d4;strokeColor=#82b366;fontStyle=4" vertex="1" parent="1">
          <mxGeometry x="850" y="303" width="40" height="40" as="geometry" />
        </mxCell>
        <mxCell id="QQLdnKHmHbcZTYwuZHdk-18" value="surname" style="ellipse;whiteSpace=wrap;html=1;align=center;rounded=0;sketch=0;fillColor=#d5e8d4;strokeColor=#82b366;" vertex="1" parent="1">
          <mxGeometry x="895" y="286" width="40" height="40" as="geometry" />
        </mxCell>
        <mxCell id="QQLdnKHmHbcZTYwuZHdk-19" value="name" style="ellipse;whiteSpace=wrap;html=1;align=center;rounded=0;sketch=0;fillColor=#d5e8d4;strokeColor=#82b366;fontStyle=0" vertex="1" parent="1">
          <mxGeometry x="944" y="290" width="40" height="40" as="geometry" />
        </mxCell>
        <mxCell id="QQLdnKHmHbcZTYwuZHdk-49" value="N" style="edgeStyle=orthogonalEdgeStyle;rounded=0;sketch=0;orthogonalLoop=1;jettySize=auto;html=1;exitX=1;exitY=0.5;exitDx=0;exitDy=0;entryX=0;entryY=0.5;entryDx=0;entryDy=0;endArrow=none;endFill=0;verticalAlign=top;" edge="1" parent="1" source="QQLdnKHmHbcZTYwuZHdk-22" target="QQLdnKHmHbcZTYwuZHdk-35">
          <mxGeometry relative="1" as="geometry" />
        </mxCell>
        <mxCell id="QQLdnKHmHbcZTYwuZHdk-22" value="product" style="whiteSpace=wrap;html=1;align=center;rounded=0;sketch=0;fillColor=#f8cecc;strokeColor=#b85450;" vertex="1" parent="1">
          <mxGeometry x="309" y="360" width="100" height="40" as="geometry" />
        </mxCell>
        <mxCell id="QQLdnKHmHbcZTYwuZHdk-23" value="&lt;span style=&quot;border-bottom: 1px dotted&quot;&gt;ID&lt;/span&gt;" style="ellipse;whiteSpace=wrap;html=1;align=center;rounded=0;sketch=0;fillColor=#d5e8d4;strokeColor=#82b366;" vertex="1" parent="1">
          <mxGeometry x="294" y="307" width="40" height="40" as="geometry" />
        </mxCell>
        <mxCell id="QQLdnKHmHbcZTYwuZHdk-24" value="name" style="ellipse;whiteSpace=wrap;html=1;align=center;rounded=0;sketch=0;fillColor=#d5e8d4;strokeColor=#82b366;" vertex="1" parent="1">
          <mxGeometry x="339" y="295" width="40" height="40" as="geometry" />
        </mxCell>
        <mxCell id="QQLdnKHmHbcZTYwuZHdk-25" value="production&lt;br&gt;date" style="ellipse;whiteSpace=wrap;html=1;align=center;rounded=0;sketch=0;fillColor=#d5e8d4;strokeColor=#82b366;" vertex="1" parent="1">
          <mxGeometry x="384" y="308" width="40" height="40" as="geometry" />
        </mxCell>
        <mxCell id="QQLdnKHmHbcZTYwuZHdk-36" value="N" style="edgeStyle=orthogonalEdgeStyle;rounded=0;sketch=0;orthogonalLoop=1;jettySize=auto;html=1;exitX=0;exitY=0.5;exitDx=0;exitDy=0;entryX=1;entryY=0.5;entryDx=0;entryDy=0;endArrow=none;endFill=0;verticalAlign=top;spacing=1;exitPerimeter=0;" edge="1" parent="1" source="QQLdnKHmHbcZTYwuZHdk-186" target="QQLdnKHmHbcZTYwuZHdk-35">
          <mxGeometry relative="1" as="geometry">
            <mxPoint x="587" y="380" as="sourcePoint" />
          </mxGeometry>
        </mxCell>
        <mxCell id="QQLdnKHmHbcZTYwuZHdk-40" value="1" style="edgeStyle=orthogonalEdgeStyle;rounded=0;sketch=0;orthogonalLoop=1;jettySize=auto;html=1;exitX=0.25;exitY=1;exitDx=0;exitDy=0;endArrow=none;endFill=0;entryX=0.5;entryY=0;entryDx=0;entryDy=0;verticalAlign=bottom;" edge="1" parent="1" source="QQLdnKHmHbcZTYwuZHdk-186" target="QQLdnKHmHbcZTYwuZHdk-39">
          <mxGeometry relative="1" as="geometry">
            <mxPoint x="637" y="400" as="sourcePoint" />
          </mxGeometry>
        </mxCell>
        <mxCell id="QQLdnKHmHbcZTYwuZHdk-91" value="N" style="edgeStyle=orthogonalEdgeStyle;rounded=0;sketch=0;orthogonalLoop=1;jettySize=auto;html=1;exitX=0;exitY=0.25;exitDx=0;exitDy=0;entryX=1;entryY=0.5;entryDx=0;entryDy=0;endArrow=none;endFill=0;labelPosition=left;verticalLabelPosition=bottom;align=right;verticalAlign=top;spacingBottom=0;" edge="1" parent="1" source="QQLdnKHmHbcZTYwuZHdk-186" target="QQLdnKHmHbcZTYwuZHdk-93">
          <mxGeometry relative="1" as="geometry">
            <mxPoint x="587" y="370" as="sourcePoint" />
            <Array as="points">
              <mxPoint x="520" y="370" />
              <mxPoint x="520" y="225" />
            </Array>
          </mxGeometry>
        </mxCell>
        <mxCell id="QQLdnKHmHbcZTYwuZHdk-96" value="1" style="edgeStyle=orthogonalEdgeStyle;rounded=0;sketch=0;orthogonalLoop=1;jettySize=auto;html=1;exitX=0.75;exitY=0;exitDx=0;exitDy=0;entryX=0.5;entryY=1;entryDx=0;entryDy=0;endArrow=none;endFill=0;verticalAlign=bottom;labelPosition=center;verticalLabelPosition=top;align=center;" edge="1" parent="1" source="QQLdnKHmHbcZTYwuZHdk-186" target="QQLdnKHmHbcZTYwuZHdk-95">
          <mxGeometry relative="1" as="geometry">
            <mxPoint x="662" y="360" as="sourcePoint" />
          </mxGeometry>
        </mxCell>
        <mxCell id="QQLdnKHmHbcZTYwuZHdk-33" value="1" style="edgeStyle=orthogonalEdgeStyle;rounded=0;sketch=0;orthogonalLoop=1;jettySize=auto;html=1;exitX=0;exitY=0.5;exitDx=0;exitDy=0;endArrow=none;endFill=0;verticalAlign=bottom;entryX=1;entryY=0.5;entryDx=0;entryDy=0;" edge="1" parent="1" source="QQLdnKHmHbcZTYwuZHdk-31" target="QQLdnKHmHbcZTYwuZHdk-186">
          <mxGeometry relative="1" as="geometry">
            <mxPoint x="690" y="380" as="targetPoint" />
          </mxGeometry>
        </mxCell>
        <mxCell id="QQLdnKHmHbcZTYwuZHdk-31" value="does" style="shape=rhombus;perimeter=rhombusPerimeter;whiteSpace=wrap;html=1;align=center;rounded=0;sketch=0;fillColor=#dae8fc;strokeColor=#6c8ebf;" vertex="1" parent="1">
          <mxGeometry x="749" y="365" width="60" height="30" as="geometry" />
        </mxCell>
        <mxCell id="QQLdnKHmHbcZTYwuZHdk-35" value="is being" style="shape=rhombus;perimeter=rhombusPerimeter;whiteSpace=wrap;html=1;align=center;rounded=0;sketch=0;fillColor=#dae8fc;strokeColor=#6c8ebf;" vertex="1" parent="1">
          <mxGeometry x="455" y="365" width="60" height="30" as="geometry" />
        </mxCell>
        <mxCell id="QQLdnKHmHbcZTYwuZHdk-54" value="1" style="edgeStyle=orthogonalEdgeStyle;rounded=0;sketch=0;orthogonalLoop=1;jettySize=auto;html=1;exitX=0.5;exitY=1;exitDx=0;exitDy=0;entryX=0.5;entryY=0;entryDx=0;entryDy=0;endArrow=none;endFill=0;labelPosition=right;verticalLabelPosition=middle;align=left;verticalAlign=middle;" edge="1" parent="1" source="QQLdnKHmHbcZTYwuZHdk-185" target="QQLdnKHmHbcZTYwuZHdk-53">
          <mxGeometry relative="1" as="geometry">
            <mxPoint x="590" y="570" as="sourcePoint" />
          </mxGeometry>
        </mxCell>
        <mxCell id="QQLdnKHmHbcZTYwuZHdk-41" value="1" style="edgeStyle=orthogonalEdgeStyle;rounded=0;sketch=0;orthogonalLoop=1;jettySize=auto;html=1;exitX=0.5;exitY=1;exitDx=0;exitDy=0;entryX=0.5;entryY=0;entryDx=0;entryDy=0;endArrow=none;endFill=0;labelPosition=right;verticalLabelPosition=middle;align=left;verticalAlign=middle;" edge="1" parent="1" source="QQLdnKHmHbcZTYwuZHdk-39" target="QQLdnKHmHbcZTYwuZHdk-185">
          <mxGeometry relative="1" as="geometry">
            <mxPoint x="590" y="530" as="targetPoint" />
          </mxGeometry>
        </mxCell>
        <mxCell id="QQLdnKHmHbcZTYwuZHdk-39" value="has" style="shape=rhombus;perimeter=rhombusPerimeter;whiteSpace=wrap;html=1;align=center;rounded=0;sketch=0;fillColor=#dae8fc;strokeColor=#6c8ebf;" vertex="1" parent="1">
          <mxGeometry x="560" y="464" width="60" height="30" as="geometry" />
        </mxCell>
        <mxCell id="QQLdnKHmHbcZTYwuZHdk-43" value="date" style="ellipse;whiteSpace=wrap;html=1;align=center;rounded=0;sketch=0;fillColor=#d5e8d4;strokeColor=#82b366;fontStyle=4" vertex="1" parent="1">
          <mxGeometry x="683" y="531" width="40" height="40" as="geometry" />
        </mxCell>
        <mxCell id="QQLdnKHmHbcZTYwuZHdk-44" value="amount" style="ellipse;whiteSpace=wrap;html=1;align=center;rounded=0;sketch=0;fillColor=#d5e8d4;strokeColor=#82b366;" vertex="1" parent="1">
          <mxGeometry x="660" y="580" width="40" height="40" as="geometry" />
        </mxCell>
        <mxCell id="QQLdnKHmHbcZTYwuZHdk-55" value="N" style="edgeStyle=orthogonalEdgeStyle;rounded=0;sketch=0;orthogonalLoop=1;jettySize=auto;html=1;exitX=0.5;exitY=1;exitDx=0;exitDy=0;entryX=0.5;entryY=0;entryDx=0;entryDy=0;endArrow=none;endFill=0;labelPosition=right;verticalLabelPosition=middle;align=left;verticalAlign=middle;" edge="1" parent="1" source="QQLdnKHmHbcZTYwuZHdk-53">
          <mxGeometry relative="1" as="geometry">
            <mxPoint x="590" y="670" as="targetPoint" />
          </mxGeometry>
        </mxCell>
        <mxCell id="QQLdnKHmHbcZTYwuZHdk-53" value="has" style="shape=rhombus;perimeter=rhombusPerimeter;whiteSpace=wrap;html=1;align=center;rounded=0;sketch=0;fillColor=#dae8fc;strokeColor=#6c8ebf;" vertex="1" parent="1">
          <mxGeometry x="560" y="600" width="60" height="30" as="geometry" />
        </mxCell>
        <mxCell id="QQLdnKHmHbcZTYwuZHdk-59" value="ID" style="ellipse;whiteSpace=wrap;html=1;align=center;rounded=0;sketch=0;fillColor=#d5e8d4;strokeColor=#82b366;fontStyle=4" vertex="1" parent="1">
          <mxGeometry x="531" y="736" width="40" height="40" as="geometry" />
        </mxCell>
        <mxCell id="QQLdnKHmHbcZTYwuZHdk-60" value="owner&lt;br&gt;name" style="ellipse;whiteSpace=wrap;html=1;align=center;rounded=0;sketch=0;fillColor=#d5e8d4;strokeColor=#82b366;" vertex="1" parent="1">
          <mxGeometry x="580" y="740" width="40" height="40" as="geometry" />
        </mxCell>
        <mxCell id="QQLdnKHmHbcZTYwuZHdk-65" style="edgeStyle=orthogonalEdgeStyle;rounded=0;sketch=0;orthogonalLoop=1;jettySize=auto;html=1;exitX=1;exitY=0.5;exitDx=0;exitDy=0;entryX=0;entryY=0.5;entryDx=0;entryDy=0;endArrow=none;endFill=0;" edge="1" parent="1" source="QQLdnKHmHbcZTYwuZHdk-64" target="QQLdnKHmHbcZTYwuZHdk-185">
          <mxGeometry relative="1" as="geometry">
            <mxPoint x="540" y="560" as="targetPoint" />
          </mxGeometry>
        </mxCell>
        <mxCell id="QQLdnKHmHbcZTYwuZHdk-64" value="cash" style="ellipse;whiteSpace=wrap;html=1;align=center;rounded=0;sketch=0;fillColor=#d5e8d4;strokeColor=#82b366;" vertex="1" parent="1">
          <mxGeometry x="475" y="540" width="40" height="40" as="geometry" />
        </mxCell>
        <mxCell id="QQLdnKHmHbcZTYwuZHdk-69" style="edgeStyle=orthogonalEdgeStyle;rounded=0;sketch=0;orthogonalLoop=1;jettySize=auto;html=1;exitX=1;exitY=0.5;exitDx=0;exitDy=0;entryX=0;entryY=0.5;entryDx=0;entryDy=0;endArrow=classic;endFill=1;" edge="1" parent="1" source="QQLdnKHmHbcZTYwuZHdk-70" target="QQLdnKHmHbcZTYwuZHdk-22">
          <mxGeometry relative="1" as="geometry">
            <mxPoint x="205" y="380" as="targetPoint" />
          </mxGeometry>
        </mxCell>
        <mxCell id="QQLdnKHmHbcZTYwuZHdk-70" value="car" style="whiteSpace=wrap;html=1;align=center;rounded=0;sketch=0;fillColor=#f8cecc;strokeColor=#b85450;" vertex="1" parent="1">
          <mxGeometry x="99" y="321" width="100" height="40" as="geometry" />
        </mxCell>
        <mxCell id="QQLdnKHmHbcZTYwuZHdk-71" value="ID" style="ellipse;whiteSpace=wrap;html=1;align=center;rounded=0;sketch=0;fillColor=#d5e8d4;strokeColor=#82b366;fontStyle=4" vertex="1" parent="1">
          <mxGeometry x="70" y="270" width="40" height="40" as="geometry" />
        </mxCell>
        <mxCell id="QQLdnKHmHbcZTYwuZHdk-72" value="model" style="ellipse;whiteSpace=wrap;html=1;align=center;rounded=0;sketch=0;fillColor=#d5e8d4;strokeColor=#82b366;" vertex="1" parent="1">
          <mxGeometry x="100" y="235" width="40" height="40" as="geometry" />
        </mxCell>
        <mxCell id="QQLdnKHmHbcZTYwuZHdk-73" value="color" style="ellipse;whiteSpace=wrap;html=1;align=center;rounded=0;sketch=0;fillColor=#d5e8d4;strokeColor=#82b366;" vertex="1" parent="1">
          <mxGeometry x="154" y="235" width="40" height="40" as="geometry" />
        </mxCell>
        <mxCell id="QQLdnKHmHbcZTYwuZHdk-89" style="edgeStyle=orthogonalEdgeStyle;rounded=0;sketch=0;orthogonalLoop=1;jettySize=auto;html=1;exitX=1;exitY=0.5;exitDx=0;exitDy=0;endArrow=none;endFill=0;" edge="1" parent="1" source="QQLdnKHmHbcZTYwuZHdk-84">
          <mxGeometry relative="1" as="geometry">
            <mxPoint x="254" y="380" as="targetPoint" />
          </mxGeometry>
        </mxCell>
        <mxCell id="QQLdnKHmHbcZTYwuZHdk-84" value="peripheral" style="whiteSpace=wrap;html=1;align=center;rounded=0;sketch=0;fillColor=#f8cecc;strokeColor=#b85450;" vertex="1" parent="1">
          <mxGeometry x="98" y="400" width="100" height="40" as="geometry" />
        </mxCell>
        <mxCell id="QQLdnKHmHbcZTYwuZHdk-86" value="ID" style="ellipse;whiteSpace=wrap;html=1;align=center;rounded=0;sketch=0;fillColor=#d5e8d4;strokeColor=#82b366;fontStyle=4" vertex="1" parent="1">
          <mxGeometry x="40" y="440" width="40" height="40" as="geometry" />
        </mxCell>
        <mxCell id="QQLdnKHmHbcZTYwuZHdk-88" value="name" style="ellipse;whiteSpace=wrap;html=1;align=center;rounded=0;sketch=0;fillColor=#d5e8d4;strokeColor=#82b366;" vertex="1" parent="1">
          <mxGeometry x="80" y="480" width="40" height="40" as="geometry" />
        </mxCell>
        <mxCell id="QQLdnKHmHbcZTYwuZHdk-92" value="customer&lt;br&gt;satissfaction" style="whiteSpace=wrap;html=1;align=center;rounded=0;sketch=0;fillColor=#f8cecc;strokeColor=#b85450;" vertex="1" parent="1">
          <mxGeometry x="590" y="110" width="100" height="40" as="geometry" />
        </mxCell>
        <mxCell id="QQLdnKHmHbcZTYwuZHdk-94" value="1" style="edgeStyle=orthogonalEdgeStyle;rounded=0;sketch=0;orthogonalLoop=1;jettySize=auto;html=1;exitX=0;exitY=0.5;exitDx=0;exitDy=0;entryX=1;entryY=0.5;entryDx=0;entryDy=0;endArrow=none;endFill=0;labelPosition=left;verticalLabelPosition=middle;align=right;verticalAlign=middle;horizontal=1;spacing=5;spacingBottom=-40;" edge="1" parent="1" source="QQLdnKHmHbcZTYwuZHdk-93" target="QQLdnKHmHbcZTYwuZHdk-183">
          <mxGeometry relative="1" as="geometry">
            <mxPoint y="380" as="targetPoint" />
            <Array as="points">
              <mxPoint x="60" y="225" />
              <mxPoint x="60" y="390" />
              <mxPoint y="390" />
              <mxPoint y="385" />
            </Array>
          </mxGeometry>
        </mxCell>
        <mxCell id="QQLdnKHmHbcZTYwuZHdk-93" value="has" style="shape=rhombus;perimeter=rhombusPerimeter;whiteSpace=wrap;html=1;align=center;rounded=0;sketch=0;fillColor=#dae8fc;strokeColor=#6c8ebf;" vertex="1" parent="1">
          <mxGeometry x="274" y="210" width="60" height="30" as="geometry" />
        </mxCell>
        <mxCell id="QQLdnKHmHbcZTYwuZHdk-97" value="N" style="edgeStyle=orthogonalEdgeStyle;rounded=0;sketch=0;orthogonalLoop=1;jettySize=auto;html=1;exitX=0.5;exitY=0;exitDx=0;exitDy=0;entryX=0.5;entryY=1;entryDx=0;entryDy=0;endArrow=none;endFill=0;labelPosition=right;verticalLabelPosition=middle;align=left;verticalAlign=middle;" edge="1" parent="1" source="QQLdnKHmHbcZTYwuZHdk-95" target="QQLdnKHmHbcZTYwuZHdk-92">
          <mxGeometry relative="1" as="geometry" />
        </mxCell>
        <mxCell id="QQLdnKHmHbcZTYwuZHdk-95" value="has" style="shape=rhombus;perimeter=rhombusPerimeter;whiteSpace=wrap;html=1;align=center;rounded=0;sketch=0;fillColor=#dae8fc;strokeColor=#6c8ebf;" vertex="1" parent="1">
          <mxGeometry x="610" y="240" width="60" height="30" as="geometry" />
        </mxCell>
        <mxCell id="QQLdnKHmHbcZTYwuZHdk-98" value="address" style="ellipse;whiteSpace=wrap;html=1;align=center;rounded=0;sketch=0;fillColor=#d5e8d4;strokeColor=#82b366;" vertex="1" parent="1">
          <mxGeometry x="880" y="440" width="40" height="40" as="geometry" />
        </mxCell>
        <mxCell id="QQLdnKHmHbcZTYwuZHdk-99" value="phone" style="ellipse;whiteSpace=wrap;html=1;align=center;rounded=0;sketch=0;shape=doubleEllipse;fillColor=#d5e8d4;strokeColor=#82b366;" vertex="1" parent="1">
          <mxGeometry x="984" y="450" width="40" height="40" as="geometry" />
        </mxCell>
        <mxCell id="QQLdnKHmHbcZTYwuZHdk-105" style="edgeStyle=orthogonalEdgeStyle;rounded=0;sketch=0;orthogonalLoop=1;jettySize=auto;html=1;exitX=1;exitY=0.75;exitDx=0;exitDy=0;entryX=0;entryY=0.5;entryDx=0;entryDy=0;endArrow=none;endFill=0;" edge="1" parent="1" source="QQLdnKHmHbcZTYwuZHdk-102" target="QQLdnKHmHbcZTYwuZHdk-183">
          <mxGeometry relative="1" as="geometry">
            <mxPoint x="-100" y="380" as="targetPoint" />
          </mxGeometry>
        </mxCell>
        <mxCell id="QQLdnKHmHbcZTYwuZHdk-102" value="warranty" style="whiteSpace=wrap;html=1;align=center;rounded=0;sketch=0;fillColor=#f8cecc;strokeColor=#b85450;" vertex="1" parent="1">
          <mxGeometry x="-240" y="303" width="100" height="40" as="geometry" />
        </mxCell>
        <mxCell id="QQLdnKHmHbcZTYwuZHdk-104" style="edgeStyle=orthogonalEdgeStyle;rounded=0;sketch=0;orthogonalLoop=1;jettySize=auto;html=1;exitX=1;exitY=0.25;exitDx=0;exitDy=0;entryX=0;entryY=0.5;entryDx=0;entryDy=0;endArrow=classic;endFill=1;" edge="1" parent="1" source="QQLdnKHmHbcZTYwuZHdk-103" target="QQLdnKHmHbcZTYwuZHdk-183">
          <mxGeometry relative="1" as="geometry">
            <mxPoint x="-100" y="400" as="targetPoint" />
          </mxGeometry>
        </mxCell>
        <mxCell id="QQLdnKHmHbcZTYwuZHdk-103" value="customer&lt;br&gt;service" style="whiteSpace=wrap;html=1;align=center;rounded=0;sketch=0;fillColor=#f8cecc;strokeColor=#b85450;" vertex="1" parent="1">
          <mxGeometry x="-240" y="440" width="100" height="40" as="geometry" />
        </mxCell>
        <mxCell id="QQLdnKHmHbcZTYwuZHdk-106" value="amount" style="ellipse;whiteSpace=wrap;html=1;align=center;rounded=0;sketch=0;fillColor=#d5e8d4;strokeColor=#82b366;" vertex="1" parent="1">
          <mxGeometry x="-270" y="240" width="40" height="40" as="geometry" />
        </mxCell>
        <mxCell id="QQLdnKHmHbcZTYwuZHdk-107" value="subject" style="ellipse;whiteSpace=wrap;html=1;align=center;rounded=0;sketch=0;fillColor=#d5e8d4;strokeColor=#82b366;" vertex="1" parent="1">
          <mxGeometry x="-304" y="436" width="40" height="40" as="geometry" />
        </mxCell>
        <mxCell id="QQLdnKHmHbcZTYwuZHdk-149" value="1" style="edgeStyle=orthogonalEdgeStyle;rounded=0;sketch=0;orthogonalLoop=1;jettySize=auto;html=1;exitX=1;exitY=0.5;exitDx=0;exitDy=0;entryX=0;entryY=0.5;entryDx=0;entryDy=0;endArrow=none;endFill=0;strokeColor=#000000;labelPosition=left;verticalLabelPosition=middle;align=right;verticalAlign=middle;" edge="1" parent="1" target="QQLdnKHmHbcZTYwuZHdk-147">
          <mxGeometry relative="1" as="geometry">
            <mxPoint x="509" y="100" as="sourcePoint" />
            <Array as="points">
              <mxPoint x="520" y="100" />
            </Array>
          </mxGeometry>
        </mxCell>
        <mxCell id="QQLdnKHmHbcZTYwuZHdk-114" value="address" style="ellipse;whiteSpace=wrap;html=1;align=center;rounded=0;sketch=0;fillColor=#d5e8d4;strokeColor=#82b366;" vertex="1" parent="1">
          <mxGeometry x="367" y="15" width="40" height="40" as="geometry" />
        </mxCell>
        <mxCell id="QQLdnKHmHbcZTYwuZHdk-115" value="d_name" style="ellipse;whiteSpace=wrap;html=1;align=center;rounded=0;sketch=0;fillColor=#d5e8d4;strokeColor=#82b366;" vertex="1" parent="1">
          <mxGeometry x="415" y="-14" width="40" height="40" as="geometry" />
        </mxCell>
        <mxCell id="QQLdnKHmHbcZTYwuZHdk-122" value="in shop" style="whiteSpace=wrap;html=1;align=center;rounded=0;sketch=0;fillColor=#f8cecc;strokeColor=#b85450;" vertex="1" parent="1">
          <mxGeometry x="160" y="26" width="100" height="40" as="geometry" />
        </mxCell>
        <mxCell id="QQLdnKHmHbcZTYwuZHdk-123" value="home" style="whiteSpace=wrap;html=1;align=center;rounded=0;sketch=0;fillColor=#f8cecc;strokeColor=#b85450;" vertex="1" parent="1">
          <mxGeometry x="160" y="120" width="100" height="40" as="geometry" />
        </mxCell>
        <mxCell id="QQLdnKHmHbcZTYwuZHdk-124" value="start&lt;br&gt;date" style="ellipse;whiteSpace=wrap;html=1;align=center;rounded=0;sketch=0;fillColor=#d5e8d4;strokeColor=#82b366;fontStyle=4" vertex="1" parent="1">
          <mxGeometry x="-70" y="303" width="40" height="40" as="geometry" />
        </mxCell>
        <mxCell id="QQLdnKHmHbcZTYwuZHdk-125" value="duration" style="ellipse;whiteSpace=wrap;html=1;align=center;rounded=0;sketch=0;fillColor=#d5e8d4;strokeColor=#82b366;" vertex="1" parent="1">
          <mxGeometry x="-220" y="220" width="40" height="40" as="geometry" />
        </mxCell>
        <mxCell id="QQLdnKHmHbcZTYwuZHdk-128" style="edgeStyle=orthogonalEdgeStyle;rounded=0;sketch=0;orthogonalLoop=1;jettySize=auto;html=1;exitX=1;exitY=0.5;exitDx=0;exitDy=0;entryX=0;entryY=0.5;entryDx=0;entryDy=0;endArrow=classic;endFill=1;" edge="1" parent="1" source="QQLdnKHmHbcZTYwuZHdk-122" target="QQLdnKHmHbcZTYwuZHdk-188">
          <mxGeometry relative="1" as="geometry">
            <mxPoint x="269" y="60.5" as="sourcePoint" />
            <mxPoint x="409" y="100" as="targetPoint" />
            <Array as="points">
              <mxPoint x="330" y="46" />
              <mxPoint x="330" y="100" />
            </Array>
          </mxGeometry>
        </mxCell>
        <mxCell id="QQLdnKHmHbcZTYwuZHdk-129" style="edgeStyle=orthogonalEdgeStyle;rounded=0;sketch=0;orthogonalLoop=1;jettySize=auto;html=1;exitX=1;exitY=0.5;exitDx=0;exitDy=0;endArrow=none;endFill=0;" edge="1" parent="1" source="QQLdnKHmHbcZTYwuZHdk-123">
          <mxGeometry relative="1" as="geometry">
            <mxPoint x="330" y="100" as="targetPoint" />
            <mxPoint x="268" y="139.5" as="sourcePoint" />
          </mxGeometry>
        </mxCell>
        <mxCell id="QQLdnKHmHbcZTYwuZHdk-134" value="country" style="ellipse;whiteSpace=wrap;html=1;align=center;rounded=0;sketch=0;fillColor=#d5e8d4;strokeColor=#82b366;" vertex="1" parent="1">
          <mxGeometry x="810" y="480" width="40" height="40" as="geometry" />
        </mxCell>
        <mxCell id="QQLdnKHmHbcZTYwuZHdk-135" value="city" style="ellipse;whiteSpace=wrap;html=1;align=center;rounded=0;sketch=0;fillColor=#d5e8d4;strokeColor=#82b366;" vertex="1" parent="1">
          <mxGeometry x="846" y="510" width="40" height="40" as="geometry" />
        </mxCell>
        <mxCell id="QQLdnKHmHbcZTYwuZHdk-136" value="street" style="ellipse;whiteSpace=wrap;html=1;align=center;rounded=0;sketch=0;fillColor=#d5e8d4;strokeColor=#82b366;" vertex="1" parent="1">
          <mxGeometry x="894" y="510" width="40" height="40" as="geometry" />
        </mxCell>
        <mxCell id="QQLdnKHmHbcZTYwuZHdk-137" value="p_code" style="ellipse;whiteSpace=wrap;html=1;align=center;rounded=0;sketch=0;fillColor=#d5e8d4;strokeColor=#82b366;" vertex="1" parent="1">
          <mxGeometry x="940" y="480" width="40" height="40" as="geometry" />
        </mxCell>
        <mxCell id="QQLdnKHmHbcZTYwuZHdk-138" value="" style="endArrow=none;html=1;rounded=0;sketch=0;entryX=0;entryY=1;entryDx=0;entryDy=0;exitX=1;exitY=0;exitDx=0;exitDy=0;fillColor=#d5e8d4;strokeColor=#000000;" edge="1" parent="1" source="QQLdnKHmHbcZTYwuZHdk-134" target="QQLdnKHmHbcZTYwuZHdk-98">
          <mxGeometry relative="1" as="geometry">
            <mxPoint x="240" y="430" as="sourcePoint" />
            <mxPoint x="400" y="430" as="targetPoint" />
          </mxGeometry>
        </mxCell>
        <mxCell id="QQLdnKHmHbcZTYwuZHdk-139" value="" style="endArrow=none;html=1;rounded=0;sketch=0;entryX=0.5;entryY=1;entryDx=0;entryDy=0;exitX=1;exitY=0;exitDx=0;exitDy=0;fillColor=#d5e8d4;strokeColor=#000000;" edge="1" parent="1" source="QQLdnKHmHbcZTYwuZHdk-135" target="QQLdnKHmHbcZTYwuZHdk-98">
          <mxGeometry relative="1" as="geometry">
            <mxPoint x="240" y="430" as="sourcePoint" />
            <mxPoint x="400" y="430" as="targetPoint" />
          </mxGeometry>
        </mxCell>
        <mxCell id="QQLdnKHmHbcZTYwuZHdk-140" value="" style="endArrow=none;html=1;rounded=0;sketch=0;entryX=0.5;entryY=1;entryDx=0;entryDy=0;exitX=0.5;exitY=0;exitDx=0;exitDy=0;fillColor=#d5e8d4;strokeColor=#000000;" edge="1" parent="1" source="QQLdnKHmHbcZTYwuZHdk-136" target="QQLdnKHmHbcZTYwuZHdk-98">
          <mxGeometry relative="1" as="geometry">
            <mxPoint x="240" y="430" as="sourcePoint" />
            <mxPoint x="400" y="430" as="targetPoint" />
          </mxGeometry>
        </mxCell>
        <mxCell id="QQLdnKHmHbcZTYwuZHdk-141" value="" style="endArrow=none;html=1;rounded=0;sketch=0;entryX=0;entryY=0;entryDx=0;entryDy=0;exitX=1;exitY=1;exitDx=0;exitDy=0;fillColor=#d5e8d4;strokeColor=#000000;" edge="1" parent="1" source="QQLdnKHmHbcZTYwuZHdk-98" target="QQLdnKHmHbcZTYwuZHdk-137">
          <mxGeometry relative="1" as="geometry">
            <mxPoint x="240" y="430" as="sourcePoint" />
            <mxPoint x="400" y="430" as="targetPoint" />
          </mxGeometry>
        </mxCell>
        <mxCell id="QQLdnKHmHbcZTYwuZHdk-184" value="1" style="edgeStyle=orthogonalEdgeStyle;rounded=0;sketch=0;orthogonalLoop=1;jettySize=auto;html=1;exitX=1;exitY=0.5;exitDx=0;exitDy=0;entryX=0.16;entryY=0.025;entryDx=0;entryDy=0;entryPerimeter=0;fontColor=none;endArrow=none;endFill=0;strokeColor=#000000;labelPosition=left;verticalLabelPosition=middle;align=right;verticalAlign=middle;" edge="1" parent="1" source="QQLdnKHmHbcZTYwuZHdk-147" target="QQLdnKHmHbcZTYwuZHdk-186">
          <mxGeometry relative="1" as="geometry">
            <mxPoint x="605" y="358" as="targetPoint" />
          </mxGeometry>
        </mxCell>
        <mxCell id="QQLdnKHmHbcZTYwuZHdk-147" value="has" style="shape=rhombus;perimeter=rhombusPerimeter;whiteSpace=wrap;html=1;align=center;rounded=0;sketch=0;fillColor=#dae8fc;strokeColor=#6c8ebf;" vertex="1" parent="1">
          <mxGeometry x="520" y="190" width="60" height="30" as="geometry" />
        </mxCell>
        <mxCell id="QQLdnKHmHbcZTYwuZHdk-152" value="birth&lt;br&gt;date" style="ellipse;whiteSpace=wrap;html=1;align=center;rounded=0;sketch=0;fillColor=#d5e8d4;strokeColor=#82b366;fontStyle=0" vertex="1" parent="1">
          <mxGeometry x="990" y="310" width="40" height="40" as="geometry" />
        </mxCell>
        <mxCell id="QQLdnKHmHbcZTYwuZHdk-154" value="ID" style="ellipse;whiteSpace=wrap;html=1;align=center;rounded=0;sketch=0;fillColor=#d5e8d4;strokeColor=#82b366;fontStyle=4" vertex="1" parent="1">
          <mxGeometry x="571" y="51" width="40" height="40" as="geometry" />
        </mxCell>
        <mxCell id="QQLdnKHmHbcZTYwuZHdk-155" value="time" style="ellipse;whiteSpace=wrap;html=1;align=center;rounded=0;sketch=0;fillColor=#d5e8d4;strokeColor=#82b366;" vertex="1" parent="1">
          <mxGeometry x="616" y="40" width="40" height="40" as="geometry" />
        </mxCell>
        <mxCell id="QQLdnKHmHbcZTYwuZHdk-156" value="date" style="ellipse;whiteSpace=wrap;html=1;align=center;rounded=0;sketch=0;fillColor=#d5e8d4;strokeColor=#82b366;" vertex="1" parent="1">
          <mxGeometry x="660" y="40" width="40" height="40" as="geometry" />
        </mxCell>
        <mxCell id="QQLdnKHmHbcZTYwuZHdk-157" value="type" style="ellipse;whiteSpace=wrap;html=1;align=center;rounded=0;sketch=0;fillColor=#d5e8d4;strokeColor=#82b366;" vertex="1" parent="1">
          <mxGeometry x="707" y="63" width="40" height="40" as="geometry" />
        </mxCell>
        <mxCell id="QQLdnKHmHbcZTYwuZHdk-158" value="grade" style="ellipse;whiteSpace=wrap;html=1;align=center;rounded=0;sketch=0;fillColor=#d5e8d4;strokeColor=#82b366;" vertex="1" parent="1">
          <mxGeometry x="723" y="113" width="40" height="40" as="geometry" />
        </mxCell>
        <mxCell id="QQLdnKHmHbcZTYwuZHdk-160" value="time" style="ellipse;whiteSpace=wrap;html=1;align=center;rounded=0;sketch=0;fillColor=#d5e8d4;strokeColor=#82b366;" vertex="1" parent="1">
          <mxGeometry x="390" y="138" width="40" height="40" as="geometry" />
        </mxCell>
        <mxCell id="QQLdnKHmHbcZTYwuZHdk-161" value="date" style="ellipse;whiteSpace=wrap;html=1;align=center;rounded=0;sketch=0;fillColor=#d5e8d4;strokeColor=#82b366;fontStyle=4" vertex="1" parent="1">
          <mxGeometry x="450" y="138" width="40" height="40" as="geometry" />
        </mxCell>
        <mxCell id="QQLdnKHmHbcZTYwuZHdk-162" value="address" style="ellipse;whiteSpace=wrap;html=1;align=center;rounded=0;sketch=0;fillColor=#d5e8d4;strokeColor=#82b366;" vertex="1" parent="1">
          <mxGeometry x="98" y="98" width="40" height="40" as="geometry" />
        </mxCell>
        <mxCell id="QQLdnKHmHbcZTYwuZHdk-163" value="delivery&lt;br&gt;person" style="ellipse;whiteSpace=wrap;html=1;align=center;rounded=0;sketch=0;fillColor=#d5e8d4;strokeColor=#82b366;" vertex="1" parent="1">
          <mxGeometry x="110" y="150" width="40" height="40" as="geometry" />
        </mxCell>
        <mxCell id="QQLdnKHmHbcZTYwuZHdk-164" value="shop&lt;br&gt;address" style="ellipse;whiteSpace=wrap;html=1;align=center;rounded=0;sketch=0;fillColor=#d5e8d4;strokeColor=#82b366;" vertex="1" parent="1">
          <mxGeometry x="138" y="-40" width="40" height="40" as="geometry" />
        </mxCell>
        <mxCell id="QQLdnKHmHbcZTYwuZHdk-165" value="ID" style="ellipse;whiteSpace=wrap;html=1;align=center;rounded=0;sketch=0;fillColor=#d5e8d4;strokeColor=#82b366;fontStyle=4" vertex="1" parent="1">
          <mxGeometry x="99" width="40" height="40" as="geometry" />
        </mxCell>
        <mxCell id="QQLdnKHmHbcZTYwuZHdk-166" value="VIN" style="ellipse;whiteSpace=wrap;html=1;align=center;rounded=0;sketch=0;fillColor=#d5e8d4;strokeColor=#82b366;" vertex="1" parent="1">
          <mxGeometry x="199" y="263" width="40" height="40" as="geometry" />
        </mxCell>
        <mxCell id="QQLdnKHmHbcZTYwuZHdk-167" value="price" style="ellipse;whiteSpace=wrap;html=1;align=center;rounded=0;sketch=0;fillColor=#d5e8d4;strokeColor=#82b366;" vertex="1" parent="1">
          <mxGeometry x="344" y="414" width="40" height="40" as="geometry" />
        </mxCell>
        <mxCell id="QQLdnKHmHbcZTYwuZHdk-168" value="time" style="ellipse;whiteSpace=wrap;html=1;align=center;rounded=0;sketch=0;fillColor=#d5e8d4;strokeColor=#82b366;" vertex="1" parent="1">
          <mxGeometry x="-70" y="425" width="40" height="40" as="geometry" />
        </mxCell>
        <mxCell id="QQLdnKHmHbcZTYwuZHdk-170" value="expert" style="ellipse;whiteSpace=wrap;html=1;align=center;rounded=0;sketch=0;fillColor=#d5e8d4;strokeColor=#82b366;" vertex="1" parent="1">
          <mxGeometry x="-270" y="385" width="40" height="40" as="geometry" />
        </mxCell>
        <mxCell id="QQLdnKHmHbcZTYwuZHdk-171" value="ID" style="ellipse;whiteSpace=wrap;html=1;align=center;rounded=0;sketch=0;fillColor=#d5e8d4;strokeColor=#82b366;fontStyle=4" vertex="1" parent="1">
          <mxGeometry x="-273" y="490" width="40" height="40" as="geometry" />
        </mxCell>
        <mxCell id="QQLdnKHmHbcZTYwuZHdk-172" value="time" style="ellipse;whiteSpace=wrap;html=1;align=center;rounded=0;sketch=0;fillColor=#d5e8d4;strokeColor=#82b366;" vertex="1" parent="1">
          <mxGeometry x="660" y="480" width="40" height="40" as="geometry" />
        </mxCell>
        <mxCell id="QQLdnKHmHbcZTYwuZHdk-174" value="number" style="ellipse;whiteSpace=wrap;html=1;align=center;rounded=0;sketch=0;fillColor=#d5e8d4;strokeColor=#82b366;fontStyle=4" vertex="1" parent="1">
          <mxGeometry x="670" y="287" width="40" height="40" as="geometry" />
        </mxCell>
        <mxCell id="QQLdnKHmHbcZTYwuZHdk-175" value="time" style="ellipse;whiteSpace=wrap;html=1;align=center;rounded=0;sketch=0;fillColor=#d5e8d4;strokeColor=#82b366;" vertex="1" parent="1">
          <mxGeometry x="707" y="318" width="40" height="40" as="geometry" />
        </mxCell>
        <mxCell id="QQLdnKHmHbcZTYwuZHdk-176" value="date" style="ellipse;whiteSpace=wrap;html=1;align=center;rounded=0;sketch=0;fillColor=#d5e8d4;strokeColor=#82b366;" vertex="1" parent="1">
          <mxGeometry x="707" y="396" width="40" height="40" as="geometry" />
        </mxCell>
        <mxCell id="QQLdnKHmHbcZTYwuZHdk-177" value="ID" style="ellipse;whiteSpace=wrap;html=1;align=center;rounded=0;sketch=0;fillColor=#d5e8d4;strokeColor=#82b366;fontStyle=4" vertex="1" parent="1">
          <mxGeometry x="-295" y="289" width="40" height="40" as="geometry" />
        </mxCell>
        <mxCell id="QQLdnKHmHbcZTYwuZHdk-181" value="" style="edgeStyle=orthogonalEdgeStyle;rounded=0;sketch=0;orthogonalLoop=1;jettySize=auto;html=1;fontColor=none;endArrow=none;endFill=0;strokeColor=#000000;" edge="1" parent="1" target="QQLdnKHmHbcZTYwuZHdk-53">
          <mxGeometry relative="1" as="geometry">
            <mxPoint x="590" y="690" as="sourcePoint" />
          </mxGeometry>
        </mxCell>
        <mxCell id="QQLdnKHmHbcZTYwuZHdk-180" value="card" style="shape=ext;margin=3;whiteSpace=wrap;html=1;align=center;rounded=0;sketch=0;fillColor=#f8cecc;strokeColor=#b85450;" vertex="1" parent="1">
          <mxGeometry x="540" y="670" width="100" height="40" as="geometry" />
        </mxCell>
        <mxCell id="QQLdnKHmHbcZTYwuZHdk-183" value="after_sale_service" style="shape=ext;margin=3;double=1;whiteSpace=wrap;html=1;align=center;rounded=0;sketch=0;fillColor=#f8cecc;strokeColor=#b85450;" vertex="1" parent="1">
          <mxGeometry x="-100" y="365" width="122" height="40" as="geometry" />
        </mxCell>
        <mxCell id="QQLdnKHmHbcZTYwuZHdk-185" value="payment" style="shape=ext;margin=3;double=1;whiteSpace=wrap;html=1;align=center;rounded=0;sketch=0;fillColor=#f8cecc;strokeColor=#b85450;" vertex="1" parent="1">
          <mxGeometry x="540" y="531" width="100" height="40" as="geometry" />
        </mxCell>
        <mxCell id="QQLdnKHmHbcZTYwuZHdk-186" value="purchase" style="shape=ext;margin=3;double=1;whiteSpace=wrap;html=1;align=center;rounded=0;sketch=0;fillColor=#f8cecc;strokeColor=#b85450;" vertex="1" parent="1">
          <mxGeometry x="587" y="360" width="100" height="40" as="geometry" />
        </mxCell>
        <mxCell id="QQLdnKHmHbcZTYwuZHdk-188" value="delivery" style="shape=ext;margin=3;double=1;whiteSpace=wrap;html=1;align=center;rounded=0;sketch=0;fillColor=#f8cecc;strokeColor=#b85450;" vertex="1" parent="1">
          <mxGeometry x="409" y="80" width="100" height="40" as="geometry" />
        </mxCell>
        <mxCell id="QQLdnKHmHbcZTYwuZHdk-189" value="Email" style="ellipse;whiteSpace=wrap;html=1;align=center;rounded=0;sketch=0;shape=doubleEllipse;fillColor=#d5e8d4;strokeColor=#82b366;" vertex="1" parent="1">
          <mxGeometry x="1010" y="414" width="40" height="40" as="geometry" />
        </mxCell>
        <mxCell id="QQLdnKHmHbcZTYwuZHdk-190" value="gender" style="ellipse;whiteSpace=wrap;html=1;align=center;rounded=0;sketch=0;fillColor=#d5e8d4;strokeColor=#82b366;fontStyle=0" vertex="1" parent="1">
          <mxGeometry x="1020" y="361" width="40" height="40" as="geometry" />
        </mxCell>
        <mxCell id="QQLdnKHmHbcZTYwuZHdk-191" value="description" style="ellipse;whiteSpace=wrap;html=1;align=center;rounded=0;sketch=0;fillColor=#d5e8d4;strokeColor=#82b366;" vertex="1" parent="1">
          <mxGeometry x="700" y="160" width="40" height="40" as="geometry" />
        </mxCell>
        <mxCell id="QQLdnKHmHbcZTYwuZHdk-193" value="number" style="ellipse;whiteSpace=wrap;html=1;align=center;rounded=0;sketch=0;fillColor=#d5e8d4;strokeColor=#82b366;" vertex="1" parent="1">
          <mxGeometry x="630" y="720" width="40" height="40" as="geometry" />
        </mxCell>
        <mxCell id="QQLdnKHmHbcZTYwuZHdk-194" value="d_lname" style="ellipse;whiteSpace=wrap;html=1;align=center;rounded=0;sketch=0;fillColor=#d5e8d4;strokeColor=#82b366;" vertex="1" parent="1">
          <mxGeometry x="469" y="-14" width="40" height="40" as="geometry" />
        </mxCell>
        <mxCell id="QQLdnKHmHbcZTYwuZHdk-195" value="description" style="ellipse;whiteSpace=wrap;html=1;align=center;rounded=0;sketch=0;fillColor=#d5e8d4;strokeColor=#82b366;" vertex="1" parent="1">
          <mxGeometry x="520" y="11" width="40" height="40" as="geometry" />
        </mxCell>
        <mxCell id="QQLdnKHmHbcZTYwuZHdk-196" value="shop&lt;br&gt;no." style="ellipse;whiteSpace=wrap;html=1;align=center;rounded=0;sketch=0;fillColor=#d5e8d4;strokeColor=#82b366;" vertex="1" parent="1">
          <mxGeometry x="199" y="-40" width="40" height="40" as="geometry" />
        </mxCell>
        <mxCell id="QQLdnKHmHbcZTYwuZHdk-197" value="quality" style="ellipse;whiteSpace=wrap;html=1;align=center;rounded=0;sketch=0;fillColor=#d5e8d4;strokeColor=#82b366;" vertex="1" parent="1">
          <mxGeometry x="138" y="491" width="40" height="40" as="geometry" />
        </mxCell>
        <mxCell id="QQLdnKHmHbcZTYwuZHdk-199" value="description" style="ellipse;whiteSpace=wrap;html=1;align=center;rounded=0;sketch=0;shape=doubleEllipse;fillColor=#d5e8d4;strokeColor=#82b366;" vertex="1" parent="1">
          <mxGeometry x="190" y="476" width="40" height="40" as="geometry" />
        </mxCell>
        <mxCell id="QQLdnKHmHbcZTYwuZHdk-200" value="discount" style="ellipse;whiteSpace=wrap;html=1;align=center;rounded=0;sketch=0;shape=doubleEllipse;fillColor=#d5e8d4;strokeColor=#82b366;" vertex="1" parent="1">
          <mxGeometry x="656" y="424" width="40" height="40" as="geometry" />
        </mxCell>
        <mxCell id="QQLdnKHmHbcZTYwuZHdk-201" value="ID" style="ellipse;whiteSpace=wrap;html=1;align=center;rounded=0;sketch=0;fillColor=#d5e8d4;strokeColor=#82b366;fontStyle=4" vertex="1" parent="1">
          <mxGeometry x="160" y="178" width="40" height="40" as="geometry" />
        </mxCell>
      </root>
    </mxGraphModel>
  </diagram>
</mxfile>
